<svg width="20" height="21" viewBox="0 0 20 21" fill="none" xmlns="http://www.w3.org/2000/svg">
<g opacity="0.5">
<path fill-rule="evenodd" clip-rule="evenodd" d="M2 8C0.895431 8 0 8.89543 0 10V19C0 20.1046 0.895431 21 2 21H18C19.1046 21 20 20.1046 20 19V10C20 8.89543 19.1046 8 18 8H2ZM7 17.4722C7 18.316 7.82081 19 8.83333 19C9.77122 19 10.5446 18.4131 10.6535 17.656C10.6622 17.6092 10.6667 17.5584 10.6667 17.5035V13.0556C12.307 12.7429 13.3255 12.5392 13.7222 12.4444C13.9979 12.3786 14.3333 12.1498 14.3333 11.7916V10.7169C14.3333 10.2336 13.8835 9.88894 13.4408 10.0331L9.92688 11.1078C9.63987 11.2012 9.44444 11.4782 9.44444 11.7916V16.0314C9.2533 15.9751 9.04761 15.9444 8.83333 15.9444C7.82081 15.9444 7 16.6285 7 17.4722Z" fill="white"/>
<rect x="3" y="4" width="14" height="2" rx="0.5" fill="white"/>
<rect x="5" width="10" height="2" rx="0.5" fill="white"/>
</g>
</svg>
