<svg width="17" height="20" viewBox="0 0 17 20" fill="none" xmlns="http://www.w3.org/2000/svg">
<path fill-rule="evenodd" clip-rule="evenodd" d="M15.5 0H3.5C1.7536 0 0.5 1.30584 0.5 3V17C0.5 18.6942 1.7536 20 3.5 20H15.5C16.1418 20 16.5 19.6269 16.5 19V18H4.5C3.94772 18 3.5 17.5523 3.5 17C3.5 16.4477 3.94772 16 4.5 16H16.5V1C16.5 0.373096 16.1418 0 15.5 0Z" fill="white"/>
<mask id="mask0_0_155" style="mask-type:luminance" maskUnits="userSpaceOnUse" x="0" y="0" width="17" height="20">
<path fill-rule="evenodd" clip-rule="evenodd" d="M15.5 0H3.5C1.7536 0 0.5 1.30584 0.5 3V17C0.5 18.6942 1.7536 20 3.5 20H15.5C16.1418 20 16.5 19.6269 16.5 19V18H4.5C3.94772 18 3.5 17.5523 3.5 17C3.5 16.4477 3.94772 16 4.5 16H16.5V1C16.5 0.373096 16.1418 0 15.5 0Z" fill="white"/>
</mask>
<g mask="url(#mask0_0_155)">
</g>
</svg>
