<svg width="75" height="17" viewBox="0 0 75 17" fill="none" xmlns="http://www.w3.org/2000/svg">
<path fill-rule="evenodd" clip-rule="evenodd" d="M38.748 11.214C37.476 12.474 35.928 13.104 34.104 13.104C32.28 13.104 30.735 12.471 29.469 11.205C28.203 9.939 27.57 8.388 27.57 6.552C27.57 4.716 28.203 3.165 29.469 1.899C30.735 0.633 32.28 0 34.104 0C35.928 0 37.476 0.633 38.748 1.899C40.02 3.165 40.656 4.716 40.656 6.552C40.656 8.388 40.02 9.942 38.748 11.214ZM22.992 14.214C21.72 15.474 20.172 16.104 18.348 16.104C16.524 16.104 14.979 15.471 13.713 14.205C12.447 12.939 11.814 11.388 11.814 9.552C11.814 7.716 12.447 6.165 13.713 4.899C14.979 3.633 16.524 3 18.348 3C20.172 3 21.72 3.633 22.992 4.899C24.264 6.165 24.9 7.716 24.9 9.552C24.9 11.388 24.264 12.942 22.992 14.214ZM8.136 14.826C7.38 15.51 6.45 15.852 5.346 15.852H0V3.252H4.968C6.048 3.252 6.957 3.585 7.695 4.251C8.433 4.917 8.802 5.766 8.802 6.798C8.802 7.842 8.406 8.682 7.614 9.318C8.718 9.954 9.27 10.914 9.27 12.198C9.27 13.266 8.892 14.142 8.136 14.826ZM2.484 8.346H4.968C5.352 8.346 5.673 8.214 5.931 7.95C6.189 7.686 6.318 7.356 6.318 6.96C6.318 6.564 6.192 6.234 5.94 5.97C5.688 5.706 5.364 5.574 4.968 5.574H2.484V8.346ZM5.346 13.53H2.484V10.56H5.346C5.766 10.56 6.114 10.701 6.39 10.983C6.666 11.265 6.804 11.616 6.804 12.036C6.804 12.468 6.666 12.825 6.39 13.107C6.114 13.389 5.766 13.53 5.346 13.53ZM18.348 13.674C17.196 13.674 16.23 13.29 15.45 12.522C14.67 11.742 14.28 10.752 14.28 9.552C14.28 8.352 14.67 7.362 15.45 6.582C16.23 5.802 17.196 5.412 18.348 5.412C19.5 5.412 20.466 5.802 21.246 6.582C22.026 7.362 22.416 8.352 22.416 9.552C22.416 10.752 22.026 11.739 21.246 12.513C20.466 13.287 19.5 13.674 18.348 13.674ZM34.104 10.674C32.952 10.674 31.986 10.29 31.206 9.522C30.426 8.742 30.036 7.752 30.036 6.552C30.036 5.352 30.426 4.362 31.206 3.582C31.986 2.802 32.952 2.412 34.104 2.412C35.256 2.412 36.222 2.802 37.002 3.582C37.782 4.362 38.172 5.352 38.172 6.552C38.172 7.752 37.782 8.739 37.002 9.513C36.222 10.287 35.256 10.674 34.104 10.674ZM46.386 9.948V15.852H43.902V3.252H46.386V8.814L50.706 3.252H53.568L48.906 9.372L53.748 15.852H50.886L46.386 9.948ZM63.762 15.852V13.476H58.956V3.252H56.472V15.852H63.762ZM70.68 10.938V15.852H68.214V10.938L63.912 3.252H66.72L69.456 8.508L72.192 3.252H75L70.68 10.938Z" fill="white"/>
<path d="M29.83 15.852H38.83" stroke="white" stroke-width="1.5" stroke-linecap="round"/>
</svg>
